<?xml version="1.0" ?><svg height="128" id="svg8" version="1.1" viewBox="0 0 33.866666 33.866668" width="128" xmlns="http://www.w3.org/2000/svg" xmlns:cc="http://creativecommons.org/ns#" xmlns:dc="http://purl.org/dc/elements/1.1/" xmlns:inkscape="http://www.inkscape.org/namespaces/inkscape" xmlns:rdf="http://www.w3.org/1999/02/22-rdf-syntax-ns#" xmlns:sodipodi="http://sodipodi.sourceforge.net/DTD/sodipodi-0.dtd" xmlns:svg="http://www.w3.org/2000/svg" xmlns:xlink="http://www.w3.org/1999/xlink"><defs id="defs2"><linearGradient id="linearGradient2202"><stop id="stop2198" offset="0" style="stop-color:#f6f600;stop-opacity:1;"/><stop id="stop2200" offset="1" style="stop-color:#f69134;stop-opacity:1"/></linearGradient><linearGradient gradientTransform="matrix(0.39352029,0,0,0.39352035,-185.27183,93.82285)" gradientUnits="userSpaceOnUse" id="linearGradient3363" x1="12.262755" x2="12.262755" xlink:href="#linearGradient2202" y1="9.0164375" y2="14.680936"/><clipPath clipPathUnits="userSpaceOnUse" id="clipPath5369"><rect height="62.674702" id="rect5371" rx="1.3229166" ry="1.3229166" style="fill:#ffb93f;fill-opacity:1;stroke:none;stroke-width:4.49792;stroke-linecap:butt;stroke-miterlimit:4;stroke-dasharray:none;stroke-dashoffset:0;stroke-opacity:1;paint-order:fill markers stroke" width="75.958" x="58.55875" y="-39.475708"/></clipPath></defs><g id="layer1"><path d="m 22.912602,1.0567933 -5.289176,0.00154 V 22.894399 c 0,1.879824 -1.122255,3.556703 -2.858986,4.276081 -1.736733,0.719377 -3.714028,0.325441 -5.0432639,-1.003798 C 8.3919396,24.837447 7.998002,22.858082 8.7173793,21.121352 9.436757,19.38462 11.113635,18.264949 12.993459,18.264949 h 1.710535 v -5.289692 h -1.710535 c -4.0043223,0 -7.6309355,2.424009 -9.1633233,6.12352 -1.5323881,3.699511 -0.6818199,7.977799 2.149664,10.809282 2.8314833,2.831484 7.1102863,3.682051 10.8097973,2.149663 3.699513,-1.532388 6.123005,-5.159 6.123005,-9.163323 V 10.78633 c 1.440079,0.858005 3.141229,1.487871 5.23338,1.487871 h 2.643553 V 6.982964 h -2.643553 c -2.974623,0 -3.781104,-1.2098821 -4.487379,-2.7453293 C 22.953,2.7036478 22.912602,1.0567933 22.912602,1.0567933 Z" id="path5550" style="color:#000000;font-style:normal;font-variant:normal;font-weight:normal;font-stretch:normal;font-size:medium;line-height:normal;font-family:sans-serif;font-variant-ligatures:normal;font-variant-position:normal;font-variant-caps:normal;font-variant-numeric:normal;font-variant-alternates:normal;font-variant-east-asian:normal;font-feature-settings:normal;font-variation-settings:normal;text-indent:0;text-align:start;text-decoration:none;text-decoration-line:none;text-decoration-style:solid;text-decoration-color:#000000;letter-spacing:normal;word-spacing:normal;text-transform:none;writing-mode:lr-tb;direction:ltr;text-orientation:mixed;dominant-baseline:auto;baseline-shift:baseline;text-anchor:start;white-space:normal;shape-padding:0;shape-margin:0;inline-size:0;clip-rule:nonzero;display:inline;overflow:visible;visibility:visible;opacity:1;isolation:auto;mix-blend-mode:normal;color-interpolation:sRGB;color-interpolation-filters:linearRGB;solid-color:#000000;solid-opacity:1;vector-effect:none;fill:#000000;fill-opacity:1;fill-rule:nonzero;stroke:none;stroke-width:0.999725;stroke-linecap:square;stroke-linejoin:miter;stroke-miterlimit:0;stroke-dasharray:none;stroke-dashoffset:0;stroke-opacity:1;paint-order:fill markers stroke;color-rendering:auto;image-rendering:auto;shape-rendering:auto;text-rendering:auto;enable-background:accumulate;stop-color:#000000;stop-opacity:1"/></g></svg>