<?xml version="1.0" encoding="UTF-8" standalone="no"?>
<!-- Created with Inkscape (http://www.inkscape.org/) -->

<svg
   width="1080"
   height="1920"
   viewBox="0 0 285.74999 508"
   version="1.1"
   id="svg1"
   xml:space="preserve"
   xmlns:inkscape="http://www.inkscape.org/namespaces/inkscape"
   xmlns:sodipodi="http://sodipodi.sourceforge.net/DTD/sodipodi-0.dtd"
   xmlns="http://www.w3.org/2000/svg"
   xmlns:svg="http://www.w3.org/2000/svg"
   xmlns:rdf="http://www.w3.org/1999/02/22-rdf-syntax-ns#"
   xmlns:cc="http://creativecommons.org/ns#"
   xmlns:dc="http://purl.org/dc/elements/1.1/"><defs
     id="defs1"><style
       id="style1">&#10;      .cls-1 {&#10;        fill: none;&#10;      }&#10;    </style></defs><sodipodi:namedview
     id="base"
     pagecolor="#ffffff"
     bordercolor="#000000"
     borderopacity="0.3"
     inkscape:pageopacity="0.0"
     inkscape:pageshadow="2"
     inkscape:zoom="0.35"
     inkscape:cx="-78.571429"
     inkscape:cy="924.28571"
     inkscape:document-units="px"
     inkscape:showpageshadow="2"
     inkscape:pagecheckerboard="0"
     inkscape:deskcolor="#d1d1d1"
     showguides="true"
     inkscape:window-width="1920"
     inkscape:window-height="1057"
     inkscape:window-x="-8"
     inkscape:window-y="-8"
     inkscape:window-maximized="1"
     inkscape:current-layer="svg1"><sodipodi:guide
       position="219.98214,692.45237"
       orientation="0,-1"
       id="guide1"
       inkscape:locked="false" /></sodipodi:namedview><metadata
     id="metadata1"><rdf:RDF><cc:Work
         rdf:about=""><dc:format>image/svg+xml</dc:format><dc:type
           rdf:resource="http://purl.org/dc/dcmitype/StillImage" /></cc:Work></rdf:RDF></metadata><g
     id="g1"
     transform="matrix(0.19540019,0,0,0.19540019,-5.6750422,205.41386)"><path
       d="m 80,32 -32,80 v 304 h 96 v 64 h 64 l 64,-64 h 80 L 464,304 V 32 Z m 336,256 -64,64 h -96 l -64,64 V 352 H 112 V 80 h 304 z"
       id="path1" /><rect
       height="129"
       width="48"
       x="320"
       y="143"
       id="rect1" /><rect
       height="129"
       width="48"
       x="208"
       y="143"
       id="rect2" /></g><g
     style="clip-rule:evenodd;fill-rule:evenodd;stroke-linejoin:round;stroke-miterlimit:2"
     id="g2"
     transform="matrix(0.1700891,0,0,0.19075986,86.783335,205.48303)"><path
       d="M 501.303,132.765 C 495.416,110.735 478.068,93.388 456.038,87.5 416.106,76.8 256,76.8 256,76.8 256,76.8 95.893,76.8 55.961,87.5 33.935,93.388 16.584,110.735 10.697,132.765 0,172.693 0,256.003 0,256.003 c 0,0 0,83.308 10.697,123.232 5.887,22.03 23.238,39.382 45.264,45.269 C 95.893,435.2 256,435.2 256,435.2 c 0,0 160.106,0 200.038,-10.696 22.03,-5.887 39.378,-23.239 45.265,-45.269 10.696,-39.924 10.696,-123.232 10.696,-123.232 0,0 0,-83.31 -10.696,-123.238 z M 204.797,332.804 V 179.201 l 133.019,76.802 z"
       style="fill-rule:nonzero"
       id="path1-5" /></g><path
     d="m 206.22973,230.18755 -7.68155,0.003 v 31.71292 c 0,2.7301 -1.62988,5.16546 -4.15217,6.21023 -2.52228,1.04476 -5.39395,0.47265 -7.32442,-1.45783 -1.93048,-1.93048 -2.5026,-4.80514 -1.45783,-7.32743 1.04477,-2.52228 3.48013,-4.1484 6.21023,-4.1484 h 2.48424 v -7.68231 h -2.48424 c -5.81555,0 -11.08254,3.52042 -13.30806,8.89328 -2.22552,5.37288 -0.99022,11.58631 3.12199,15.69853 4.11222,4.11221 10.3264,5.34751 15.69927,3.12199 5.37287,-2.22552 8.89254,-7.49251 8.89254,-13.30806 V 244.3187 c 2.09146,1.24609 4.56207,2.16086 7.60054,2.16086 h 3.83929 V 238.795 h -3.83929 c -4.3201,0 -5.49136,-1.75713 -6.51711,-3.98709 -1.02475,-2.22783 -1.08343,-4.6196 -1.08343,-4.6196 z"
     id="path5550"
     style="color:#000000;font-style:normal;font-variant:normal;font-weight:normal;font-stretch:normal;font-size:medium;line-height:normal;font-family:sans-serif;font-variant-ligatures:normal;font-variant-position:normal;font-variant-caps:normal;font-variant-numeric:normal;font-variant-alternates:normal;font-variant-east-asian:normal;font-feature-settings:normal;font-variation-settings:normal;text-indent:0;text-align:start;text-decoration:none;text-decoration-line:none;text-decoration-style:solid;text-decoration-color:#000000;letter-spacing:normal;word-spacing:normal;text-transform:none;writing-mode:lr-tb;direction:ltr;text-orientation:mixed;dominant-baseline:auto;baseline-shift:baseline;text-anchor:start;white-space:normal;shape-padding:0;shape-margin:0;inline-size:0;clip-rule:nonzero;display:inline;overflow:visible;visibility:visible;isolation:auto;mix-blend-mode:normal;color-interpolation:sRGB;color-interpolation-filters:linearRGB;solid-color:#000000;solid-opacity:1;vector-effect:none;fill:#000000;fill-opacity:1;fill-rule:nonzero;stroke:none;stroke-width:1.45192;stroke-linecap:square;stroke-linejoin:miter;stroke-miterlimit:0;stroke-dasharray:none;stroke-dashoffset:0;stroke-opacity:1;paint-order:fill markers stroke;color-rendering:auto;image-rendering:auto;shape-rendering:auto;text-rendering:auto;enable-background:accumulate;stop-color:#000000" /><g
     id="g3"
     transform="matrix(2.6129328,0,0,2.6129328,210.60832,209.77683)"><path
       d="m 13.647,14.907 a 1.4482,1.4482 0 1 0 1.326,1.443 1.385,1.385 0 0 0 -1.326,-1.443 z m 4.745,0 a 1.4482,1.4482 0 1 0 1.326,1.443 1.385,1.385 0 0 0 -1.326,-1.443 z"
       id="path1-0" /><path
       d="M 24.71,4 H 7.29 A 2.6714,2.6714 0 0 0 4.625,6.678 v 17.576 a 2.6714,2.6714 0 0 0 2.665,2.678 h 14.742 l -0.689,-2.405 1.664,1.547 1.573,1.456 2.795,2.47 V 6.678 A 2.6714,2.6714 0 0 0 24.71,4 Z m -5.018,16.978 c 0,0 -0.468,-0.559 -0.858,-1.053 a 4.1021,4.1021 0 0 0 2.353,-1.547 7.4391,7.4391 0 0 1 -1.495,0.767 8.5564,8.5564 0 0 1 -1.885,0.559 A 9.1068,9.1068 0 0 1 14.44,19.691 10.9127,10.9127 0 0 1 12.529,19.132 7.6184,7.6184 0 0 1 11.58,18.69 c -0.039,-0.026 -0.078,-0.039 -0.117,-0.065 a 0.18,0.18 0 0 1 -0.052,-0.039 c -0.234,-0.13 -0.364,-0.221 -0.364,-0.221 a 4.0432,4.0432 0 0 0 2.275,1.534 c -0.39,0.494 -0.871,1.079 -0.871,1.079 a 4.7134,4.7134 0 0 1 -3.965,-1.976 17.409,17.409 0 0 1 1.872,-7.579 6.4285,6.4285 0 0 1 3.653,-1.365 l 0.13,0.156 a 8.77,8.77 0 0 0 -3.419,1.703 c 0,0 0.286,-0.156 0.767,-0.377 a 9.7625,9.7625 0 0 1 2.951,-0.819 1.2808,1.2808 0 0 1 0.221,-0.026 11,11 0 0 1 2.626,-0.026 10.5971,10.5971 0 0 1 3.913,1.248 8.6518,8.6518 0 0 0 -3.237,-1.651 l 0.182,-0.208 a 6.4285,6.4285 0 0 1 3.653,1.365 17.409,17.409 0 0 1 1.872,7.579 4.752,4.752 0 0 1 -3.978,1.976 z"
       id="path2" /><rect
       class="cls-1"
       data-name="&lt;Transparent Rectangle&gt;"
       height="32"
       id="_Transparent_Rectangle_"
       width="32"
       x="0"
       y="0" /></g></svg>
